# File created by Blade
# Date/Time:  Mon Sep 22 17:38:34 2014
# Frame Rate: 120.000 fps
#------------------------------------------------------
:FULLY-SPECIFIED
:DEGREES
1685
root -0.284401 36.853390 5.407773 -13.855692 15.020849 4.350037
RightUpLeg 21.442510 -15.768207 1.082247
RightLeg -4.580345 -0.000000 0.000000
RightFoot -15.426519 -27.471737 10.480912
RightToeBase 9.575605 -0.000000 -0.000000
LeftUpLeg -16.395358 23.528480 22.808562
LeftLeg 0.922444 -0.000000 -0.000000
LeftFoot 14.683289 38.981666 -23.386780
LeftToeBase -0.909727 -0.000000 0.000000
Spine 26.590009 -19.672804 -2.132562
RightShoulder 3.150171 -25.559093 -12.072255
RightArm 20.006022 -15.726427 57.710305
RightForeArm 6.617687 -0.000000 47.693367
RightHand -0.040957 0.000000 -3.233340
RightHandThumb1 -24.326973 -0.000000 -32.862282
LeftShoulder -12.861319 27.071705 6.509620
LeftArm 65.447507 -36.704730 -61.500050
LeftForeArm 34.014213 0.000000 40.573257
LeftHand -16.761351 0.000000 -10.857366
LeftHandThumb1 -26.253704 0.000000 33.147579
Head 15.700577 18.382004 -6.047567
1686
root -0.265106 36.899727 5.404630 -14.415222 15.137392 4.836492
RightUpLeg 22.083696 -16.230801 0.186613
RightLeg -4.339388 -0.000000 0.000000
RightFoot -15.417791 -27.005141 10.502155
RightToeBase 9.299169 -0.000000 -0.000000
LeftUpLeg -16.623828 22.863785 22.771239
LeftLeg 3.108391 -0.000000 -0.000000
LeftFoot 15.874786 38.307628 -23.624031
LeftToeBase -0.341456 -0.000000 0.000000
Spine 27.638594 -19.298722 -3.011317
RightShoulder 3.211104 -25.451150 -11.749945
RightArm 19.947209 -15.262848 57.940942
RightForeArm 6.588321 -0.000000 47.425377
RightHand 0.065342 -0.000000 -3.550160
RightHandThumb1 -24.326973 -0.000000 -32.862282
LeftShoulder -12.650659 27.080434 6.809157
LeftArm 65.704489 -36.901770 -61.743495
LeftForeArm 33.609637 -0.000000 40.562308
LeftHand -16.808162 0.000000 -10.674525
LeftHandThumb1 -26.253704 0.000000 33.147579
Head 15.646541 18.208362 -5.444056
1687
root -0.235905 36.956568 5.409054 -14.914081 15.079822 5.448940
RightUpLeg 22.724823 -16.567572 -0.814957
RightLeg -4.137725 -0.000000 0.000000
RightFoot -15.324228 -26.588117 10.437932
RightToeBase 9.472901 -0.000000 -0.000000
LeftUpLeg -16.602469 22.423840 22.650598
LeftLeg 4.995563 -0.000000 -0.000000
LeftFoot 17.228137 37.135030 -23.446232
LeftToeBase -0.491654 -0.000000 0.000000
Spine 28.549325 -18.673530 -3.882140
RightShoulder 3.270508 -25.502597 -11.490713
RightArm 20.010172 -14.802985 58.190392
RightForeArm 6.679502 -0.000000 47.002057
RightHand 0.165836 -0.000000 -4.025826
RightHandThumb1 -24.326973 -0.000000 -32.862282
LeftShoulder -12.493661 27.311466 6.946007
LeftArm 66.278552 -37.130625 -62.041383
LeftForeArm 33.289351 -0.000000 40.421493
LeftHand -16.757025 -0.000000 -10.449139
LeftHandThumb1 -26.253704 0.000000 33.147579
Head 15.797875 17.971394 -4.877818
1688
root -0.204137 37.016251 5.408853 -15.235225 14.796682 6.097665
RightUpLeg 23.169317 -16.739735 -1.758588
RightLeg -3.976223 -0.000000 0.000000
RightFoot -15.144922 -26.165659 10.280245
RightToeBase 9.403199 -0.000000 -0.000000
LeftUpLeg -16.489240 22.147004 22.564280
LeftLeg 6.607611 -0.000000 -0.000000
LeftFoot 18.173280 35.840327 -23.685966
LeftToeBase -0.520385 -0.000000 0.000000
Spine 29.152246 -17.863277 -4.564326
RightShoulder 3.323781 -25.635044 -11.328784
RightArm 20.088978 -14.340457 58.496709
RightForeArm 6.712425 0.000000 46.558809
RightHand 0.254904 -0.000000 -4.446195
RightHandThumb1 -24.326973 -0.000000 -32.862282
LeftShoulder -12.354071 27.544770 6.984294
LeftArm 66.827011 -37.289553 -62.363532
LeftForeArm 33.000268 -0.000000 40.315003
LeftHand -16.853425 0.000000 -10.300130
LeftHandThumb1 -26.253704 0.000000 33.147579
Head 16.115881 17.729081 -4.447707
1689
root -0.172675 37.075421 5.405165 -15.372437 14.288037 6.759794
RightUpLeg 23.398857 -16.741693 -2.600741
RightLeg -3.887399 -0.000000 0.000000
RightFoot -14.964783 -25.781547 10.106576
RightToeBase 9.376624 -0.000000 -0.000000
LeftUpLeg -16.300007 22.012530 22.542590
LeftLeg 7.896125 -0.000000 -0.000000
LeftFoot 18.805221 34.738497 -24.158956
LeftToeBase -0.379503 -0.000000 0.000000
Spine 29.436894 -16.995812 -5.097498
RightShoulder 3.482653 -25.759875 -11.359936
RightArm 20.221438 -14.069800 58.785361
RightForeArm 6.815968 -0.000000 46.023415
RightHand 0.235375 -0.000000 -4.753051
RightHandThumb1 -24.326973 -0.000000 -32.862282
LeftShoulder -12.243345 27.576454 7.016084
LeftArm 67.096063 -37.332458 -62.799648
LeftForeArm 33.059305 -0.000000 40.276935
LeftHand -16.809867 0.000000 -10.378396
LeftHandThumb1 -26.253704 0.000000 33.147579
Head 16.612476 17.625325 -4.202193
1690
root -0.142229 37.130137 5.390597 -15.291626 13.554256 7.417984
RightUpLeg 23.317842 -16.278929 -3.186278
RightLeg -3.816772 -0.000000 0.000000
RightFoot -14.776817 -25.697293 9.879165
RightToeBase 9.299087 -0.000000 -0.000000
LeftUpLeg -16.097200 21.984594 22.550440
LeftLeg 8.857680 -0.000000 -0.000000
LeftFoot 19.188824 34.155439 -24.646886
LeftToeBase -0.330269 -0.000000 0.000000
Spine 29.364291 -15.966265 -5.420960
RightShoulder 3.621966 -25.836299 -11.475936
RightArm 20.276017 -13.875092 59.112423
RightForeArm 6.912585 -0.000000 45.465424
RightHand 0.174716 0.000000 -5.033986
RightHandThumb1 -24.326973 -0.000000 -32.862282
LeftShoulder -12.136026 27.583101 7.006620
LeftArm 67.200785 -37.270986 -63.104612
LeftForeArm 33.158738 -0.000000 40.276896
LeftHand -16.761468 -0.000000 -10.348770
LeftHandThumb1 -26.253704 0.000000 33.147579
Head 17.237556 17.542784 -4.036715
